<svg xmlns="http://www.w3.org/2000/svg" viewBox="0 0 512 512" width="512" height="512" role="img" aria-label="Springer">
  <g>
    <rect x="100.00" y="282.00" width="70.00" height="110.00" fill="#B7AE9E" stroke="#7A715F" stroke-width="8" stroke-linejoin="round"/>
    <rect x="342.00" y="282.00" width="70.00" height="110.00" fill="#B7AE9E" stroke="#7A715F" stroke-width="8" stroke-linejoin="round"/>
    <path d="M 342.00 282.00 L 333.48 244.69 L 396.55 214.31 L 412.00 282.00 Z" fill="#C26A3C" stroke="#8A4A28" stroke-width="8" stroke-linejoin="round"/>
    <path d="M 333.48 244.69 L 309.62 214.76 L 353.26 160.03 L 396.55 214.31 Z" fill="#C0B7A6" stroke="#7A715F" stroke-width="8" stroke-linejoin="round"/>
    <path d="M 309.62 214.76 L 275.14 198.16 L 290.71 129.91 L 353.26 160.03 Z" fill="#CFC7B8" stroke="#7A715F" stroke-width="8" stroke-linejoin="round"/>
    <path d="M 275.14 198.16 L 236.86 198.16 L 221.29 129.91 L 290.71 129.91 Z" fill="#B4AA94" stroke="#7A715F" stroke-width="8" stroke-linejoin="round"/>
    <path d="M 236.86 198.16 L 202.38 214.76 L 158.74 160.03 L 221.29 129.91 Z" fill="#CFC7B8" stroke="#7A715F" stroke-width="8" stroke-linejoin="round"/>
    <path d="M 202.38 214.76 L 178.52 244.69 L 115.45 214.31 L 158.74 160.03 Z" fill="#C0B7A6" stroke="#7A715F" stroke-width="8" stroke-linejoin="round"/>
    <path d="M 178.52 244.69 L 170.00 282.00 L 100.00 282.00 L 115.45 214.31 Z" fill="#C26A3C" stroke="#8A4A28" stroke-width="8" stroke-linejoin="round"/>
  </g>
  </svg>
