<svg xmlns="http://www.w3.org/2000/svg" xmlns:xlink="http://www.w3.org/1999/xlink" contentStyleType="text/css" data-diagram-type="CLASS" height="445px" preserveAspectRatio="none" style="width:982px;height:445px;background:#FFFFFF;" version="1.1" viewBox="0 0 982 445" width="982px" zoomAndPan="magnify"><?plantuml 1.2026.5?><defs/><g><!--class DataSource--><g class="entity" data-qualified-name="DataSource" data-source-line="6" id="ent0001"><rect fill="#FBFBFB" height="89.5977" rx="2.5" ry="2.5" style="stroke:#2E2E2E;stroke-width:0.5;" width="126.3447" x="169.07" y="7"/><ellipse cx="192.0043" cy="27.3105" fill="#B4A7E5" rx="11" ry="11" style="stroke:#181818;stroke-width:1;"/><path d="M188.4321,23.5757 L188.4321,21.4175 L195.8115,21.4175 L195.8115,23.5757 L193.3461,23.5757 L193.3461,31.6523 L195.8115,31.6523 L195.8115,33.8105 L188.4321,33.8105 L188.4321,31.6523 L190.8974,31.6523 L190.8974,23.5757 Z " fill="#000000"/><text fill="#000000" font-family="sans-serif" font-size="12" font-style="italic" lengthAdjust="spacing" textLength="80.4434" x="205.9023" y="23.6016">&#171;Component&#187;</text><text fill="#444444" font-family="sans-serif" font-size="14" font-style="italic" lengthAdjust="spacing" textLength="76.7129" x="207.7675" y="39.668">DataSource</text><line style="stroke:#2E2E2E;stroke-width:0.5;" x1="170.07" x2="294.4147" y1="47.6211" y2="47.6211"/><line style="stroke:#2E2E2E;stroke-width:0.5;" x1="170.07" x2="294.4147" y1="55.6211" y2="55.6211"/><g data-visibility-modifier="PUBLIC_METHOD"><ellipse cx="180.07" cy="69.3652" fill="#84BE84" rx="3" ry="3" style="stroke:#038048;stroke-width:1;"/></g><text fill="#444444" font-family="sans-serif" font-size="14" lengthAdjust="spacing" textLength="88.0059" x="189.07" y="73.1563">read() : Bytes</text><g data-visibility-modifier="PUBLIC_METHOD"><ellipse cx="180.07" cy="85.8535" fill="#84BE84" rx="3" ry="3" style="stroke:#038048;stroke-width:1;"/></g><text fill="#444444" font-family="sans-serif" font-size="14" lengthAdjust="spacing" textLength="100.3447" x="189.07" y="89.6445">write(b : Bytes)</text></g><!--class FileDataSource--><g class="entity" data-qualified-name="FileDataSource" data-source-line="10" id="ent0002"><rect fill="#FBFBFB" height="89.5977" rx="2.5" ry="2.5" style="stroke:#2E2E2E;stroke-width:0.5;" width="160.4805" x="7" y="181.84"/><ellipse cx="22" cy="202.1505" fill="#ADD1B2" rx="11" ry="11" style="stroke:#181818;stroke-width:1;"/><path d="M24.4731,208.2936 Q23.8921,208.5924 23.2529,208.7419 Q22.6138,208.8913 21.9082,208.8913 Q19.4014,208.8913 18.0815,207.2394 Q16.7617,205.5876 16.7617,202.4665 Q16.7617,199.3371 18.0815,197.6852 Q19.4014,196.0334 21.9082,196.0334 Q22.6138,196.0334 23.2612,196.1828 Q23.9087,196.3322 24.4731,196.631 L24.4731,199.3537 Q23.8423,198.7726 23.2488,198.5028 Q22.6553,198.2331 22.0244,198.2331 Q20.6797,198.2331 19.9949,199.2997 Q19.3101,200.3664 19.3101,202.4665 Q19.3101,204.5583 19.9949,205.6249 Q20.6797,206.6916 22.0244,206.6916 Q22.6553,206.6916 23.2488,206.4218 Q23.8423,206.152 24.4731,205.571 Z " fill="#000000"/><text fill="#000000" font-family="sans-serif" font-size="12" font-style="italic" lengthAdjust="spacing" textLength="132.4805" x="34" y="198.4416">&#171;ConcreteComponent&#187;</text><text fill="#444444" font-family="sans-serif" font-size="14" lengthAdjust="spacing" textLength="100.1123" x="50.1841" y="214.508">FileDataSource</text><line style="stroke:#2E2E2E;stroke-width:0.5;" x1="8" x2="166.4805" y1="222.4611" y2="222.4611"/><line style="stroke:#2E2E2E;stroke-width:0.5;" x1="8" x2="166.4805" y1="230.4611" y2="230.4611"/><g data-visibility-modifier="PUBLIC_METHOD"><ellipse cx="18" cy="244.2052" fill="#84BE84" rx="3" ry="3" style="stroke:#038048;stroke-width:1;"/></g><text fill="#444444" font-family="sans-serif" font-size="14" lengthAdjust="spacing" textLength="88.0059" x="27" y="247.9962">read() : Bytes</text><g data-visibility-modifier="PUBLIC_METHOD"><ellipse cx="18" cy="260.6935" fill="#84BE84" rx="3" ry="3" style="stroke:#038048;stroke-width:1;"/></g><text fill="#444444" font-family="sans-serif" font-size="14" lengthAdjust="spacing" textLength="100.3447" x="27" y="264.4845">write(b : Bytes)</text></g><!--class DataSourceDecorator--><g class="entity" data-qualified-name="DataSourceDecorator" data-source-line="14" id="ent0003"><rect fill="#FBFBFB" height="106.0859" rx="2.5" ry="2.5" style="stroke:#2E2E2E;stroke-width:0.5;" width="175.7939" x="202.34" y="173.6"/><ellipse cx="217.34" cy="193.9105" fill="#FBFBFB" rx="11" ry="11" style="stroke:#181818;stroke-width:1;"/><path d="M217.2033,189.2587 L216.0495,194.3305 L218.3654,194.3305 Z M215.7091,187.0175 L218.7057,187.0175 L222.0509,199.4105 L219.6022,199.4105 L218.8385,196.3476 L215.5597,196.3476 L214.8127,199.4105 L212.3639,199.4105 Z " fill="#000000"/><text fill="#000000" font-family="sans-serif" font-size="12" font-style="italic" lengthAdjust="spacing" textLength="70.0723" x="268.2008" y="190.2016">&#171;Decorator&#187;</text><text fill="#444444" font-family="sans-serif" font-size="14" font-style="italic" lengthAdjust="spacing" textLength="143.7939" x="231.34" y="206.268">DataSourceDecorator</text><line style="stroke:#2E2E2E;stroke-width:0.5;" x1="203.34" x2="377.1339" y1="214.2211" y2="214.2211"/><g data-visibility-modifier="PROTECTED_FIELD"><polygon fill="none" points="213.34,222.9652,217.34,226.9652,213.34,230.9652,209.34,226.9652" style="stroke:#B38D22;stroke-width:1;stroke-linejoin:miter;stroke-miterlimit:10;"/></g><text fill="#444444" font-family="sans-serif" font-size="14" lengthAdjust="spacing" textLength="148.4834" x="222.34" y="231.7562">wrapped : DataSource</text><line style="stroke:#2E2E2E;stroke-width:0.5;" x1="203.34" x2="377.1339" y1="238.7094" y2="238.7094"/><g data-visibility-modifier="PUBLIC_METHOD"><ellipse cx="213.34" cy="252.4535" fill="#84BE84" rx="3" ry="3" style="stroke:#038048;stroke-width:1;"/></g><text fill="#444444" font-family="sans-serif" font-size="14" lengthAdjust="spacing" textLength="88.0059" x="222.34" y="256.2445">read() : Bytes</text><g data-visibility-modifier="PUBLIC_METHOD"><ellipse cx="213.34" cy="268.9418" fill="#84BE84" rx="3" ry="3" style="stroke:#038048;stroke-width:1;"/></g><text fill="#444444" font-family="sans-serif" font-size="14" lengthAdjust="spacing" textLength="100.3447" x="222.34" y="272.7328">write(b : Bytes)</text></g><!--class CompressionDecorator--><g class="entity" data-qualified-name="CompressionDecorator" data-source-line="19" id="ent0004"><rect fill="#FBFBFB" height="89.5977" rx="2.5" ry="2.5" style="stroke:#2E2E2E;stroke-width:0.5;" width="188.3857" x="88.05" y="340.68"/><ellipse cx="103.05" cy="360.9905" fill="#ADD1B2" rx="11" ry="11" style="stroke:#181818;stroke-width:1;"/><path d="M105.5231,367.1336 Q104.9421,367.4324 104.3029,367.5819 Q103.6638,367.7313 102.9582,367.7313 Q100.4514,367.7313 99.1315,366.0794 Q97.8117,364.4276 97.8117,361.3065 Q97.8117,358.1771 99.1315,356.5252 Q100.4514,354.8734 102.9582,354.8734 Q103.6638,354.8734 104.3112,355.0228 Q104.9587,355.1722 105.5231,355.471 L105.5231,358.1937 Q104.8923,357.6126 104.2988,357.3428 Q103.7053,357.0731 103.0744,357.0731 Q101.7297,357.0731 101.0449,358.1397 Q100.3601,359.2064 100.3601,361.3065 Q100.3601,363.3983 101.0449,364.4649 Q101.7297,365.5316 103.0744,365.5316 Q103.7053,365.5316 104.2988,365.2618 Q104.8923,364.992 105.5231,364.411 Z " fill="#000000"/><text fill="#000000" font-family="sans-serif" font-size="12" font-style="italic" lengthAdjust="spacing" textLength="122.1094" x="134.1882" y="357.2816">&#171;ConcreteDecorator&#187;</text><text fill="#444444" font-family="sans-serif" font-size="14" lengthAdjust="spacing" textLength="156.3857" x="117.05" y="373.348">CompressionDecorator</text><line style="stroke:#2E2E2E;stroke-width:0.5;" x1="89.05" x2="275.4357" y1="381.3011" y2="381.3011"/><line style="stroke:#2E2E2E;stroke-width:0.5;" x1="89.05" x2="275.4357" y1="389.3011" y2="389.3011"/><g data-visibility-modifier="PUBLIC_METHOD"><ellipse cx="99.05" cy="403.0452" fill="#84BE84" rx="3" ry="3" style="stroke:#038048;stroke-width:1;"/></g><text fill="#444444" font-family="sans-serif" font-size="14" lengthAdjust="spacing" textLength="88.0059" x="108.05" y="406.8362">read() : Bytes</text><g data-visibility-modifier="PUBLIC_METHOD"><ellipse cx="99.05" cy="419.5335" fill="#84BE84" rx="3" ry="3" style="stroke:#038048;stroke-width:1;"/></g><text fill="#444444" font-family="sans-serif" font-size="14" lengthAdjust="spacing" textLength="100.3447" x="108.05" y="423.3245">write(b : Bytes)</text></g><!--class EncryptionDecorator--><g class="entity" data-qualified-name="EncryptionDecorator" data-source-line="23" id="ent0005"><rect fill="#FBFBFB" height="89.5977" rx="2.5" ry="2.5" style="stroke:#2E2E2E;stroke-width:0.5;" width="170.9541" x="311.76" y="340.68"/><ellipse cx="326.76" cy="360.9905" fill="#ADD1B2" rx="11" ry="11" style="stroke:#181818;stroke-width:1;"/><path d="M329.2331,367.1336 Q328.6521,367.4324 328.0129,367.5819 Q327.3738,367.7313 326.6682,367.7313 Q324.1614,367.7313 322.8415,366.0794 Q321.5217,364.4276 321.5217,361.3065 Q321.5217,358.1771 322.8415,356.5252 Q324.1614,354.8734 326.6682,354.8734 Q327.3738,354.8734 328.0212,355.0228 Q328.6687,355.1722 329.2331,355.471 L329.2331,358.1937 Q328.6023,357.6126 328.0088,357.3428 Q327.4153,357.0731 326.7844,357.0731 Q325.4397,357.0731 324.7549,358.1397 Q324.0701,359.2064 324.0701,361.3065 Q324.0701,363.3983 324.7549,364.4649 Q325.4397,365.5316 326.7844,365.5316 Q327.4153,365.5316 328.0088,365.2618 Q328.6023,364.992 329.2331,364.411 Z " fill="#000000"/><text fill="#000000" font-family="sans-serif" font-size="12" font-style="italic" lengthAdjust="spacing" textLength="122.1094" x="349.1824" y="357.2816">&#171;ConcreteDecorator&#187;</text><text fill="#444444" font-family="sans-serif" font-size="14" lengthAdjust="spacing" textLength="138.9541" x="340.76" y="373.348">EncryptionDecorator</text><line style="stroke:#2E2E2E;stroke-width:0.5;" x1="312.76" x2="481.7141" y1="381.3011" y2="381.3011"/><line style="stroke:#2E2E2E;stroke-width:0.5;" x1="312.76" x2="481.7141" y1="389.3011" y2="389.3011"/><g data-visibility-modifier="PUBLIC_METHOD"><ellipse cx="322.76" cy="403.0452" fill="#84BE84" rx="3" ry="3" style="stroke:#038048;stroke-width:1;"/></g><text fill="#444444" font-family="sans-serif" font-size="14" lengthAdjust="spacing" textLength="88.0059" x="331.76" y="406.8362">read() : Bytes</text><g data-visibility-modifier="PUBLIC_METHOD"><ellipse cx="322.76" cy="419.5335" fill="#84BE84" rx="3" ry="3" style="stroke:#038048;stroke-width:1;"/></g><text fill="#444444" font-family="sans-serif" font-size="14" lengthAdjust="spacing" textLength="100.3447" x="331.76" y="423.3245">write(b : Bytes)</text></g><g class="entity" data-qualified-name="N" data-source-line="35" id="ent0011"><path d="M330.52,31.49 L330.52,72.1111 L967.9599,72.1111 L967.9599,41.49 L957.9599,31.49 L330.52,31.49" fill="#FFF8E1" style="stroke:#C9A227;stroke-width:0.5;"/><path d="M957.9599,31.49 L957.9599,41.49 L967.9599,41.49 L957.9599,31.49" fill="#FFF8E1" style="stroke:#C9A227;stroke-width:1;"/><text fill="#000000" font-family="sans-serif" font-size="13" lengthAdjust="spacing" textLength="567.7026" x="336.52" y="49.0584">Intent: add compression and encryption to a file source per call site, stacked in any order.</text><text fill="#000000" font-family="sans-serif" font-size="13" lengthAdjust="spacing" textLength="616.4399" x="336.52" y="64.3689">Consequence: a request passes through every wrapper; the order of wrapping changes the result.</text></g><!--reverse link DataSource to FileDataSource--><g class="link" data-entity-1="ent0001" data-entity-2="ent0002" data-link-type="extension" data-source-line="28" id="lnk6"><path codeLine="28" d="M183.7075,110.6469 C161.9675,136.5469 146.15,155.41 124.39,181.36" fill="none" id="DataSource-backto-FileDataSource" style="stroke:#181818;stroke-width:1;stroke-dasharray:7,7;"/><polygon fill="none" points="195.28,96.86,179.1119,106.7894,188.3032,114.5044,195.28,96.86" style="stroke:#181818;stroke-width:1;stroke-linejoin:miter;stroke-miterlimit:10;"/></g><!--reverse link DataSource to DataSourceDecorator--><g class="link" data-entity-1="ent0001" data-entity-2="ent0003" data-link-type="extension" data-source-line="29" id="lnk7"><path codeLine="29" d="M245.3209,114.189 C248.8309,129.229 249.16,128.54 254.24,143.6 C257.52,153.32 261.51,163.49 265.61,173.22" fill="none" id="DataSource-backto-DataSourceDecorator" style="stroke:#181818;stroke-width:1;stroke-dasharray:7,7;"/><polygon fill="none" points="241.23,96.66,239.4779,115.5526,251.1639,112.8253,241.23,96.66" style="stroke:#181818;stroke-width:1;stroke-linejoin:miter;stroke-miterlimit:10;"/></g><!--reverse link DataSourceDecorator to DataSource--><g class="link" data-entity-1="ent0003" data-entity-2="ent0001" data-link-type="aggregation" data-source-line="32" id="lnk10"><path codeLine="32" d="M268.8815,161.9837 C260.6815,137.5537 254.85,120.16 247.03,96.86" fill="none" id="DataSourceDecorator-backto-DataSource" style="stroke:#181818;stroke-width:1;"/><polygon fill="none" points="272.7,173.36,274.5828,166.399,268.8815,161.9837,266.9987,168.9447,272.7,173.36" style="stroke:#181818;stroke-width:1;stroke-linejoin:miter;stroke-miterlimit:10;"/><text fill="#000000" font-family="sans-serif" font-size="13" lengthAdjust="spacing" textLength="54.3042" x="262.24" y="140.1684">wrapped</text></g><!--reverse link DataSourceDecorator to CompressionDecorator--><g class="link" data-entity-1="ent0003" data-entity-2="ent0004" data-link-type="extension" data-source-line="30" id="lnk8"><path codeLine="30" d="M244.0696,294.6939 C230.5696,314.2939 225.58,321.54 212.63,340.34" fill="none" id="DataSourceDecorator-backto-CompressionDecorator" style="stroke:#181818;stroke-width:1;"/><polygon fill="none" points="254.28,279.87,239.1283,291.2905,249.011,298.0974,254.28,279.87" style="stroke:#181818;stroke-width:1;stroke-linejoin:miter;stroke-miterlimit:10;"/></g><!--reverse link DataSourceDecorator to EncryptionDecorator--><g class="link" data-entity-1="ent0003" data-entity-2="ent0005" data-link-type="extension" data-source-line="31" id="lnk9"><path codeLine="31" d="M336.0134,294.7398 C349.3834,314.3398 354.3,321.54 367.13,340.34" fill="none" id="DataSourceDecorator-backto-EncryptionDecorator" style="stroke:#181818;stroke-width:1;"/><polygon fill="none" points="325.87,279.87,331.0567,298.121,340.97,291.3587,325.87,279.87" style="stroke:#181818;stroke-width:1;stroke-linejoin:miter;stroke-miterlimit:10;"/></g><?plantuml-src hLF1ZjCm4BtxAmPns1QsxZsiza1t4LmGqkuFJErfO-7QmHvJ8fP_Pv8q9Ug6moAa7ABn-BqtR_oku8vCJCWnNSC3fsAu9FGQDZ6OH4oGJqMg815wC1vpfWpRM885Zf2YfwpL5Tp_m4FZfGy3V7ny_08M6I77aWp1CM7Ja8MZunfCF3I9SdOnIBC5WwPsOT-1FFJj5UHarYwkEuW1OVr6SuQ5SQA9Qnh4x9nmmx6c06qiW1ORbbENbrgzSi7uOWcqNilN83Ebi19YF6mzQLSENYaNfBf3KNWdL0CxtDniH64C5FZs5dugWBTooowMKC7xbYbtbMCIAOljM5ggNwht1Zw8g0kmmSj_0yMjh00D3yvFP9ut9nJd_nFqwz7lQdBXXNDi_cnfIZLESqdv4kXxWMWR_g_8QkhvazONUtXsF6EacZNtQRMQzUBltJFZpJP7wPt8giQKA1MYF7FCy5c6_IHFDB34ojfdoQ4pKnT5x0CnHgwX9Cdo7h9uTIr1HlDLNeJhRhOGawMa1LvSp_Ij258NNScL_6U6PeWvrocMVGtqdL9xqfVUzGdi4I3kXgha5qoDOTzVwlAPYsUjI5Hsq_m6?></g></svg>