<svg xmlns="http://www.w3.org/2000/svg" xmlns:xlink="http://www.w3.org/1999/xlink" contentStyleType="text/css" data-diagram-type="CLASS" height="595px" preserveAspectRatio="none" style="width:964px;height:595px;background:#FFFFFF;" version="1.1" viewBox="0 0 964 595" width="964px" zoomAndPan="magnify"><?plantuml 1.2026.5?><defs/><g><!--class OrderEvents--><g class="entity" data-qualified-name="OrderEvents" data-source-line="6" id="ent0001"><rect fill="#FBFBFB" height="106.0859" rx="2.5" ry="2.5" style="stroke:#2E2E2E;stroke-width:0.5;" width="227.9951" x="7" y="7"/><ellipse cx="75.4277" cy="27.3105" fill="#B4A7E5" rx="11" ry="11" style="stroke:#181818;stroke-width:1;"/><path d="M71.8555,23.5757 L71.8555,21.4175 L79.2349,21.4175 L79.2349,23.5757 L76.7695,23.5757 L76.7695,31.6523 L79.2349,31.6523 L79.2349,33.8105 L71.8555,33.8105 L71.8555,31.6523 L74.3208,31.6523 L74.3208,23.5757 Z " fill="#000000"/><text fill="#000000" font-family="sans-serif" font-size="12" font-style="italic" lengthAdjust="spacing" textLength="55.0078" x="109.7437" y="23.6016">&#171;Subject&#187;</text><text fill="#444444" font-family="sans-serif" font-size="14" font-style="italic" lengthAdjust="spacing" textLength="82.6396" x="95.9277" y="39.668">OrderEvents</text><line style="stroke:#2E2E2E;stroke-width:0.5;" x1="8" x2="233.9951" y1="47.6211" y2="47.6211"/><line style="stroke:#2E2E2E;stroke-width:0.5;" x1="8" x2="233.9951" y1="55.6211" y2="55.6211"/><g data-visibility-modifier="PUBLIC_METHOD"><ellipse cx="18" cy="69.3652" fill="#84BE84" rx="3" ry="3" style="stroke:#038048;stroke-width:1;"/></g><text fill="#444444" font-family="sans-serif" font-size="14" lengthAdjust="spacing" textLength="184.6182" x="27" y="73.1563">subscribe(l : OrderListener)</text><g data-visibility-modifier="PUBLIC_METHOD"><ellipse cx="18" cy="85.8535" fill="#84BE84" rx="3" ry="3" style="stroke:#038048;stroke-width:1;"/></g><text fill="#444444" font-family="sans-serif" font-size="14" lengthAdjust="spacing" textLength="201.9951" x="27" y="89.6445">unsubscribe(l : OrderListener)</text><g data-visibility-modifier="PUBLIC_METHOD"><ellipse cx="18" cy="102.3418" fill="#84BE84" rx="3" ry="3" style="stroke:#038048;stroke-width:1;"/></g><text fill="#444444" font-family="sans-serif" font-size="14" lengthAdjust="spacing" textLength="59.3359" x="27" y="106.1328">publish()</text></g><!--class Order--><g class="entity" data-qualified-name="Order" data-source-line="11" id="ent0002"><rect fill="#FBFBFB" height="106.0859" rx="2.5" ry="2.5" style="stroke:#2E2E2E;stroke-width:0.5;" width="197.7871" x="152.1" y="474.3"/><ellipse cx="195.334" cy="494.6105" fill="#ADD1B2" rx="11" ry="11" style="stroke:#181818;stroke-width:1;"/><path d="M197.8071,500.7536 Q197.2261,501.0524 196.5869,501.2019 Q195.9478,501.3513 195.2422,501.3513 Q192.7354,501.3513 191.4155,499.6994 Q190.0957,498.0476 190.0957,494.9265 Q190.0957,491.7971 191.4155,490.1452 Q192.7354,488.4934 195.2422,488.4934 Q195.9478,488.4934 196.5952,488.6428 Q197.2427,488.7922 197.8071,489.091 L197.8071,491.8137 Q197.1763,491.2326 196.5828,490.9628 Q195.9893,490.6931 195.3584,490.6931 Q194.0137,490.6931 193.3289,491.7597 Q192.644,492.8264 192.644,494.9265 Q192.644,497.0183 193.3289,498.0849 Q194.0137,499.1516 195.3584,499.1516 Q195.9893,499.1516 196.5828,498.8818 Q197.1763,498.612 197.8071,498.031 Z " fill="#000000"/><text fill="#000000" font-family="sans-serif" font-size="12" font-style="italic" lengthAdjust="spacing" textLength="107.0449" x="213.6082" y="490.9016">&#171;ConcreteSubject&#187;</text><text fill="#444444" font-family="sans-serif" font-size="14" lengthAdjust="spacing" textLength="38.9443" x="247.6585" y="506.968">Order</text><line style="stroke:#2E2E2E;stroke-width:0.5;" x1="153.1" x2="348.8871" y1="514.9211" y2="514.9211"/><g data-visibility-modifier="PRIVATE_FIELD"><rect fill="none" height="6" style="stroke:#C82930;stroke-width:1;" width="6" x="160.1" y="525.6652"/></g><text fill="#444444" font-family="sans-serif" font-size="14" lengthAdjust="spacing" textLength="134.9688" x="172.1" y="532.4563">status : OrderStatus</text><line style="stroke:#2E2E2E;stroke-width:0.5;" x1="153.1" x2="348.8871" y1="539.4094" y2="539.4094"/><g data-visibility-modifier="PUBLIC_METHOD"><ellipse cx="163.1" cy="553.1535" fill="#84BE84" rx="3" ry="3" style="stroke:#038048;stroke-width:1;"/></g><text fill="#444444" font-family="sans-serif" font-size="14" lengthAdjust="spacing" textLength="166.2432" x="172.1" y="556.9445">getStatus() : OrderStatus</text><g data-visibility-modifier="PUBLIC_METHOD"><ellipse cx="163.1" cy="569.6418" fill="#84BE84" rx="3" ry="3" style="stroke:#038048;stroke-width:1;"/></g><text fill="#444444" font-family="sans-serif" font-size="14" lengthAdjust="spacing" textLength="171.7871" x="172.1" y="573.4328">setStatus(s : OrderStatus)</text></g><!--class OrderListener--><g class="entity" data-qualified-name="OrderListener" data-source-line="16" id="ent0003"><rect fill="#FBFBFB" height="73.1094" rx="2.5" ry="2.5" style="stroke:#2E2E2E;stroke-width:0.5;" width="212.3066" x="144.84" y="190.09"/><ellipse cx="200.3205" cy="210.4005" fill="#B4A7E5" rx="11" ry="11" style="stroke:#181818;stroke-width:1;"/><path d="M196.7482,206.6657 L196.7482,204.5075 L204.1276,204.5075 L204.1276,206.6657 L201.6623,206.6657 L201.6623,214.7423 L204.1276,214.7423 L204.1276,216.9005 L196.7482,216.9005 L196.7482,214.7423 L199.2135,214.7423 L199.2135,206.6657 Z " fill="#000000"/><text fill="#000000" font-family="sans-serif" font-size="12" font-style="italic" lengthAdjust="spacing" textLength="64.9688" x="234.7589" y="206.6916">&#171;Observer&#187;</text><text fill="#444444" font-family="sans-serif" font-size="14" font-style="italic" lengthAdjust="spacing" textLength="92.8457" x="220.8205" y="222.758">OrderListener</text><line style="stroke:#2E2E2E;stroke-width:0.5;" x1="145.84" x2="356.1466" y1="230.7111" y2="230.7111"/><line style="stroke:#2E2E2E;stroke-width:0.5;" x1="145.84" x2="356.1466" y1="238.7111" y2="238.7111"/><g data-visibility-modifier="PUBLIC_METHOD"><ellipse cx="155.84" cy="252.4552" fill="#84BE84" rx="3" ry="3" style="stroke:#038048;stroke-width:1;"/></g><text fill="#444444" font-family="sans-serif" font-size="14" lengthAdjust="spacing" textLength="186.3066" x="164.84" y="256.2463">onOrderChanged(o : Order)</text></g><!--class DashboardWidget--><g class="entity" data-qualified-name="DashboardWidget" data-source-line="19" id="ent0004"><rect fill="#FBFBFB" height="73.1094" rx="2.5" ry="2.5" style="stroke:#2E2E2E;stroke-width:0.5;" width="212.3066" x="144.84" y="324.19"/><ellipse cx="186.8312" cy="344.5005" fill="#ADD1B2" rx="11" ry="11" style="stroke:#181818;stroke-width:1;"/><path d="M189.3044,350.6436 Q188.7233,350.9424 188.0841,351.0919 Q187.445,351.2413 186.7394,351.2413 Q184.2326,351.2413 182.9128,349.5894 Q181.5929,347.9376 181.5929,344.8165 Q181.5929,341.6871 182.9128,340.0352 Q184.2326,338.3834 186.7394,338.3834 Q187.445,338.3834 188.0924,338.5328 Q188.7399,338.6822 189.3044,338.981 L189.3044,341.7037 Q188.6735,341.1226 188.08,340.8528 Q187.4865,340.5831 186.8556,340.5831 Q185.5109,340.5831 184.8261,341.6497 Q184.1413,342.7164 184.1413,344.8165 Q184.1413,346.9083 184.8261,347.9749 Q185.5109,349.0416 186.8556,349.0416 Q187.4865,349.0416 188.08,348.7718 Q188.6735,348.502 189.3044,347.921 Z " fill="#000000"/><text fill="#000000" font-family="sans-serif" font-size="12" font-style="italic" lengthAdjust="spacing" textLength="117.0059" x="208.4894" y="340.7916">&#171;ConcreteObserver&#187;</text><text fill="#444444" font-family="sans-serif" font-size="14" lengthAdjust="spacing" textLength="120.3262" x="206.8293" y="356.858">DashboardWidget</text><line style="stroke:#2E2E2E;stroke-width:0.5;" x1="145.84" x2="356.1466" y1="364.8111" y2="364.8111"/><line style="stroke:#2E2E2E;stroke-width:0.5;" x1="145.84" x2="356.1466" y1="372.8111" y2="372.8111"/><g data-visibility-modifier="PUBLIC_METHOD"><ellipse cx="155.84" cy="386.5552" fill="#84BE84" rx="3" ry="3" style="stroke:#038048;stroke-width:1;"/></g><text fill="#444444" font-family="sans-serif" font-size="14" lengthAdjust="spacing" textLength="186.3066" x="164.84" y="390.3463">onOrderChanged(o : Order)</text></g><!--class EmailNotifier--><g class="entity" data-qualified-name="EmailNotifier" data-source-line="22" id="ent0005"><rect fill="#FBFBFB" height="73.1094" rx="2.5" ry="2.5" style="stroke:#2E2E2E;stroke-width:0.5;" width="212.3066" x="391.84" y="324.19"/><ellipse cx="437.2404" cy="344.5005" fill="#ADD1B2" rx="11" ry="11" style="stroke:#181818;stroke-width:1;"/><path d="M439.7135,350.6436 Q439.1325,350.9424 438.4933,351.0919 Q437.8542,351.2413 437.1486,351.2413 Q434.6418,351.2413 433.3219,349.5894 Q432.0021,347.9376 432.0021,344.8165 Q432.0021,341.6871 433.3219,340.0352 Q434.6418,338.3834 437.1486,338.3834 Q437.8542,338.3834 438.5016,338.5328 Q439.1491,338.6822 439.7135,338.981 L439.7135,341.7037 Q439.0827,341.1226 438.4892,340.8528 Q437.8957,340.5831 437.2648,340.5831 Q435.9201,340.5831 435.2353,341.6497 Q434.5504,342.7164 434.5504,344.8165 Q434.5504,346.9083 435.2353,347.9749 Q435.9201,349.0416 437.2648,349.0416 Q437.8957,349.0416 438.4892,348.7718 Q439.0827,348.502 439.7135,347.921 Z " fill="#000000"/><text fill="#000000" font-family="sans-serif" font-size="12" font-style="italic" lengthAdjust="spacing" textLength="117.0059" x="455.7404" y="340.7916">&#171;ConcreteObserver&#187;</text><text fill="#444444" font-family="sans-serif" font-size="14" lengthAdjust="spacing" textLength="87.4316" x="470.5275" y="356.858">EmailNotifier</text><line style="stroke:#2E2E2E;stroke-width:0.5;" x1="392.84" x2="603.1466" y1="364.8111" y2="364.8111"/><line style="stroke:#2E2E2E;stroke-width:0.5;" x1="392.84" x2="603.1466" y1="372.8111" y2="372.8111"/><g data-visibility-modifier="PUBLIC_METHOD"><ellipse cx="402.84" cy="386.5552" fill="#84BE84" rx="3" ry="3" style="stroke:#038048;stroke-width:1;"/></g><text fill="#444444" font-family="sans-serif" font-size="14" lengthAdjust="spacing" textLength="186.3066" x="411.84" y="390.3463">onOrderChanged(o : Order)</text></g><g class="entity" data-qualified-name="N" data-source-line="34" id="ent0012"><path d="M270.36,39.73 L270.36,80.3511 L949.6437,80.3511 L949.6437,49.73 L939.6437,39.73 L270.36,39.73" fill="#FFF8E1" style="stroke:#C9A227;stroke-width:0.5;"/><path d="M939.6437,39.73 L939.6437,49.73 L949.6437,49.73 L939.6437,39.73" fill="#FFF8E1" style="stroke:#C9A227;stroke-width:1;"/><text fill="#000000" font-family="sans-serif" font-size="13" lengthAdjust="spacing" textLength="658.2837" x="276.36" y="57.2984">Intent: push order status changes to a dashboard and an email sender without the Order knowing them.</text><text fill="#000000" font-family="sans-serif" font-size="13" lengthAdjust="spacing" textLength="598.6284" x="276.36" y="72.6089">Consequence: listener notification order is unspecified; a slow listener delays the publish loop.</text></g><!--reverse link OrderEvents to Order--><g class="link" data-entity-1="ent0001" data-entity-2="ent0002" data-link-type="extension" data-source-line="26" id="lnk6"><path codeLine="26" d="M107.6133,131.3054 C96.4833,199.5654 88.22,303.4 127,397.3 C139.04,426.45 161.02,452.77 183.17,473.92" fill="none" id="OrderEvents-backto-Order" style="stroke:#181818;stroke-width:1;stroke-dasharray:7,7;"/><polygon fill="none" points="110.51,113.54,101.6915,130.3398,113.5351,132.271,110.51,113.54" style="stroke:#181818;stroke-width:1;stroke-linejoin:miter;stroke-miterlimit:10;"/></g><!--reverse link OrderListener to DashboardWidget--><g class="link" data-entity-1="ent0003" data-entity-2="ent0004" data-link-type="extension" data-source-line="27" id="lnk7"><path codeLine="27" d="M251,281.39 C251,300.19 251,305.17 251,323.97" fill="none" id="OrderListener-backto-DashboardWidget" style="stroke:#181818;stroke-width:1;stroke-dasharray:7,7;"/><polygon fill="none" points="251,263.39,245,281.39,257,281.39,251,263.39" style="stroke:#181818;stroke-width:1;stroke-linejoin:miter;stroke-miterlimit:10;"/></g><!--reverse link OrderListener to EmailNotifier--><g class="link" data-entity-1="ent0003" data-entity-2="ent0005" data-link-type="extension" data-source-line="28" id="lnk8"><path codeLine="28" d="M334.0413,272.0513 C369.0313,290.7713 395.85,305.11 430.84,323.83" fill="none" id="OrderListener-backto-EmailNotifier" style="stroke:#181818;stroke-width:1;stroke-dasharray:7,7;"/><polygon fill="none" points="318.17,263.56,331.2109,277.3417,336.8717,266.7609,318.17,263.56" style="stroke:#181818;stroke-width:1;stroke-linejoin:miter;stroke-miterlimit:10;"/></g><!--reverse link OrderEvents to OrderListener--><g class="link" data-entity-1="ent0001" data-entity-2="ent0003" data-link-type="aggregation" data-source-line="29" id="lnk9"><path codeLine="29" d="M169.9256,122.9887 C189.5356,147.8287 205.02,167.43 222.62,189.72" fill="none" id="OrderEvents-backto-OrderListener" style="stroke:#181818;stroke-width:1;"/><polygon fill="none" points="162.49,113.57,163.0682,120.7579,169.9256,122.9887,169.3474,115.8008,162.49,113.57" style="stroke:#181818;stroke-width:1;stroke-linejoin:miter;stroke-miterlimit:10;"/><text fill="#000000" font-family="sans-serif" font-size="13" lengthAdjust="spacing" textLength="53.5044" x="198.64" y="156.6584">listeners</text><text fill="#000000" font-family="sans-serif" font-size="13" lengthAdjust="spacing" textLength="22.7119" x="193.67" y="179.4029">0..*</text></g><!--link DashboardWidget to Order--><g class="link" data-entity-1="ent0004" data-entity-2="ent0002" data-link-type="dependency" data-source-line="30" id="lnk10"><path codeLine="30" d="M251,397.46 C251,419.78 251,443.9 251,468.82" fill="none" id="DashboardWidget-to-Order" style="stroke:#181818;stroke-width:1;"/><polygon fill="#181818" points="251,473.82,255,464.82,251,468.82,247,464.82,251,473.82" style="stroke:#181818;stroke-width:1;stroke-linejoin:miter;stroke-miterlimit:10;"/><text fill="#000000" font-family="sans-serif" font-size="13" lengthAdjust="spacing" textLength="76.8892" x="252" y="440.8684">reads status</text></g><!--link EmailNotifier to Order--><g class="link" data-entity-1="ent0005" data-entity-2="ent0002" data-link-type="dependency" data-source-line="31" id="lnk11"><path codeLine="31" d="M444.1,397.67 C410.6,419.99 371.1109,446.3075 333.8009,471.1675" fill="none" id="EmailNotifier-to-Order" style="stroke:#181818;stroke-width:1;"/><polygon fill="#181818" points="329.64,473.94,339.3477,472.2783,333.8009,471.1675,334.9117,465.6208,329.64,473.94" style="stroke:#181818;stroke-width:1;stroke-linejoin:miter;stroke-miterlimit:10;"/><text fill="#000000" font-family="sans-serif" font-size="13" lengthAdjust="spacing" textLength="76.8892" x="397.62" y="440.8684">reads status</text></g><?plantuml-src bLDDSzCm4BthLooz92crmZbqSg3am0pJ7dBWB4kRMA18HYibT83_pieV51kOJcUSSQpTVU_jhju27ch2UCPu0--mKMSRed8IxeBN4HC2fPXroX4t454vq4uH8K4TiZUG0iJWaAHOmEwREhMEyvI740t61N6rIfb0DyeVkSY7P0-FeC0eQkgWek7ayWCyAUk0q7DT0Tk773LZKTJh3epwbqnqqntsKEjhFe2bjgmqDTXBF5XM19S6FIYZscJzSIN5A-kromP1oZK_hKe9ewzQBZdL3gND9oU4zNnwK1hXeT3jpkYPuFPsd-lFgDDs2zy5m6lADUbeQrmwsFIf7oqbz1XN9PxzSnbjhfsbPhaIFqKtqpw7gSRHJochOPG3rhxxAa17JFt7SlLta7u7PvM5TjRhA8ybZ7TYR3VuBkEkMwDPXX7hIVpxSQ6Vh655VxJnSgnTkGltPRzsCf2N88d9-dv8sOV4hDCIc4d_Lyf4qGGwL1LSlP7o-cesn0suuI-9-N2gQZjikpEL6NqYfft_DqtmvKTG1FSyXW-yHPysq6PgUj_DNSScVSPnSB6f2Jbr7kefl_XmOUEKavDa6bu2uTUClhXoRAqtjDKgsJ2O7Ym1t_uMTMd2l6LgSk7oL6BGgKVgc0OFW0kXbOAL53py1G00?></g></svg>