<svg xmlns="http://www.w3.org/2000/svg" xmlns:xlink="http://www.w3.org/1999/xlink" contentStyleType="text/css" data-diagram-type="CLASS" height="480px" preserveAspectRatio="none" style="width:1081px;height:480px;background:#FFFFFF;" version="1.1" viewBox="0 0 1081 480" width="1081px" zoomAndPan="magnify"><?plantuml 1.2026.5?><defs/><g><!--class WidgetFactory--><g class="entity" data-qualified-name="WidgetFactory" data-source-line="6" id="ent0001"><rect fill="#FBFBFB" height="89.5977" rx="2.5" ry="2.5" style="stroke:#2E2E2E;stroke-width:0.5;" width="224.9121" x="178.41" y="124.62"/><ellipse cx="236.9012" cy="144.9305" fill="#B4A7E5" rx="11" ry="11" style="stroke:#181818;stroke-width:1;"/><path d="M233.3289,141.1957 L233.3289,139.0375 L240.7083,139.0375 L240.7083,141.1957 L238.243,141.1957 L238.243,149.2723 L240.7083,149.2723 L240.7083,151.4305 L233.3289,151.4305 L233.3289,149.2723 L235.7943,149.2723 L235.7943,141.1957 Z " fill="#000000"/><text fill="#000000" font-family="sans-serif" font-size="12" font-style="italic" lengthAdjust="spacing" textLength="103.4297" x="255.4012" y="141.2216">&#171;AbstractFactory&#187;</text><text fill="#444444" font-family="sans-serif" font-size="14" font-style="italic" lengthAdjust="spacing" textLength="95.8877" x="259.1722" y="157.288">WidgetFactory</text><line style="stroke:#2E2E2E;stroke-width:0.5;" x1="179.41" x2="402.3221" y1="165.2411" y2="165.2411"/><line style="stroke:#2E2E2E;stroke-width:0.5;" x1="179.41" x2="402.3221" y1="173.2411" y2="173.2411"/><g data-visibility-modifier="PUBLIC_METHOD"><ellipse cx="189.41" cy="186.9852" fill="#84BE84" rx="3" ry="3" style="stroke:#038048;stroke-width:1;"/></g><text fill="#444444" font-family="sans-serif" font-size="14" lengthAdjust="spacing" textLength="152.8652" x="198.41" y="190.7763">createButton() : Button</text><g data-visibility-modifier="PUBLIC_METHOD"><ellipse cx="189.41" cy="203.4735" fill="#84BE84" rx="3" ry="3" style="stroke:#038048;stroke-width:1;"/></g><text fill="#444444" font-family="sans-serif" font-size="14" lengthAdjust="spacing" textLength="198.9121" x="198.41" y="207.2645">createCheckbox() : Checkbox</text></g><!--class MacWidgetFactory--><g class="entity" data-qualified-name="MacWidgetFactory" data-source-line="10" id="ent0002"><rect fill="#FBFBFB" height="56.6211" rx="2.5" ry="2.5" style="stroke:#2E2E2E;stroke-width:0.5;" width="154.8486" x="363.44" y="275.22"/><ellipse cx="378.44" cy="295.5305" fill="#ADD1B2" rx="11" ry="11" style="stroke:#181818;stroke-width:1;"/><path d="M380.9131,301.6736 Q380.3321,301.9724 379.6929,302.1219 Q379.0538,302.2713 378.3482,302.2713 Q375.8414,302.2713 374.5215,300.6194 Q373.2017,298.9676 373.2017,295.8465 Q373.2017,292.7171 374.5215,291.0652 Q375.8414,289.4134 378.3482,289.4134 Q379.0538,289.4134 379.7012,289.5628 Q380.3487,289.7122 380.9131,290.011 L380.9131,292.7337 Q380.2823,292.1526 379.6888,291.8828 Q379.0953,291.6131 378.4644,291.6131 Q377.1197,291.6131 376.4349,292.6797 Q375.7501,293.7464 375.7501,295.8465 Q375.7501,297.9383 376.4349,299.0049 Q377.1197,300.0716 378.4644,300.0716 Q379.0953,300.0716 379.6888,299.8018 Q380.2823,299.532 380.9131,298.951 Z " fill="#000000"/><text fill="#000000" font-family="sans-serif" font-size="12" font-style="italic" lengthAdjust="spacing" textLength="106.8574" x="400.4356" y="291.8216">&#171;ConcreteFactory&#187;</text><text fill="#444444" font-family="sans-serif" font-size="14" lengthAdjust="spacing" textLength="122.8486" x="392.44" y="307.888">MacWidgetFactory</text><line style="stroke:#2E2E2E;stroke-width:0.5;" x1="364.44" x2="517.2886" y1="315.8411" y2="315.8411"/><line style="stroke:#2E2E2E;stroke-width:0.5;" x1="364.44" x2="517.2886" y1="323.8411" y2="323.8411"/></g><!--class WinWidgetFactory--><g class="entity" data-qualified-name="WinWidgetFactory" data-source-line="11" id="ent0003"><rect fill="#FBFBFB" height="56.6211" rx="2.5" ry="2.5" style="stroke:#2E2E2E;stroke-width:0.5;" width="152.5996" x="175.57" y="275.22"/><ellipse cx="190.57" cy="295.5305" fill="#ADD1B2" rx="11" ry="11" style="stroke:#181818;stroke-width:1;"/><path d="M193.0431,301.6736 Q192.4621,301.9724 191.8229,302.1219 Q191.1838,302.2713 190.4782,302.2713 Q187.9714,302.2713 186.6515,300.6194 Q185.3317,298.9676 185.3317,295.8465 Q185.3317,292.7171 186.6515,291.0652 Q187.9714,289.4134 190.4782,289.4134 Q191.1838,289.4134 191.8312,289.5628 Q192.4787,289.7122 193.0431,290.011 L193.0431,292.7337 Q192.4123,292.1526 191.8188,291.8828 Q191.2253,291.6131 190.5944,291.6131 Q189.2497,291.6131 188.5649,292.6797 Q187.8801,293.7464 187.8801,295.8465 Q187.8801,297.9383 188.5649,299.0049 Q189.2497,300.0716 190.5944,300.0716 Q191.2253,300.0716 191.8188,299.8018 Q192.4123,299.532 193.0431,298.951 Z " fill="#000000"/><text fill="#000000" font-family="sans-serif" font-size="12" font-style="italic" lengthAdjust="spacing" textLength="106.8574" x="211.4411" y="291.8216">&#171;ConcreteFactory&#187;</text><text fill="#444444" font-family="sans-serif" font-size="14" lengthAdjust="spacing" textLength="120.5996" x="204.57" y="307.888">WinWidgetFactory</text><line style="stroke:#2E2E2E;stroke-width:0.5;" x1="176.57" x2="327.1696" y1="315.8411" y2="315.8411"/><line style="stroke:#2E2E2E;stroke-width:0.5;" x1="176.57" x2="327.1696" y1="323.8411" y2="323.8411"/></g><!--class Button--><g class="entity" data-qualified-name="Button" data-source-line="12" id="ent0004"><rect fill="#FBFBFB" height="56.6211" rx="2.5" ry="2.5" style="stroke:#2E2E2E;stroke-width:0.5;" width="133.7324" x="553" y="275.22"/><ellipse cx="568" cy="295.5305" fill="#B4A7E5" rx="11" ry="11" style="stroke:#181818;stroke-width:1;"/><path d="M564.4277,291.7957 L564.4277,289.6375 L571.8071,289.6375 L571.8071,291.7957 L569.3418,291.7957 L569.3418,299.8723 L571.8071,299.8723 L571.8071,302.0305 L564.4277,302.0305 L564.4277,299.8723 L566.8931,299.8723 L566.8931,291.7957 Z " fill="#000000"/><text fill="#000000" font-family="sans-serif" font-size="12" font-style="italic" lengthAdjust="spacing" textLength="105.7324" x="580" y="291.8216">&#171;AbstractProduct&#187;</text><text fill="#444444" font-family="sans-serif" font-size="14" font-style="italic" lengthAdjust="spacing" textLength="44.502" x="610.6152" y="307.888">Button</text><line style="stroke:#2E2E2E;stroke-width:0.5;" x1="554" x2="685.7324" y1="315.8411" y2="315.8411"/><line style="stroke:#2E2E2E;stroke-width:0.5;" x1="554" x2="685.7324" y1="323.8411" y2="323.8411"/></g><!--class Checkbox--><g class="entity" data-qualified-name="Checkbox" data-source-line="13" id="ent0005"><rect fill="#FBFBFB" height="56.6211" rx="2.5" ry="2.5" style="stroke:#2E2E2E;stroke-width:0.5;" width="133.7324" x="7" y="275.22"/><ellipse cx="22" cy="295.5305" fill="#B4A7E5" rx="11" ry="11" style="stroke:#181818;stroke-width:1;"/><path d="M18.4277,291.7957 L18.4277,289.6375 L25.8071,289.6375 L25.8071,291.7957 L23.3418,291.7957 L23.3418,299.8723 L25.8071,299.8723 L25.8071,302.0305 L18.4277,302.0305 L18.4277,299.8723 L20.8931,299.8723 L20.8931,291.7957 Z " fill="#000000"/><text fill="#000000" font-family="sans-serif" font-size="12" font-style="italic" lengthAdjust="spacing" textLength="105.7324" x="34" y="291.8216">&#171;AbstractProduct&#187;</text><text fill="#444444" font-family="sans-serif" font-size="14" font-style="italic" lengthAdjust="spacing" textLength="67.5254" x="53.1035" y="307.888">Checkbox</text><line style="stroke:#2E2E2E;stroke-width:0.5;" x1="8" x2="139.7324" y1="315.8411" y2="315.8411"/><line style="stroke:#2E2E2E;stroke-width:0.5;" x1="8" x2="139.7324" y1="323.8411" y2="323.8411"/></g><!--class MacButton--><g class="entity" data-qualified-name="MacButton" data-source-line="14" id="ent0006"><rect fill="#FBFBFB" height="56.6211" rx="2.5" ry="2.5" style="stroke:#2E2E2E;stroke-width:0.5;" width="137.1602" x="549.29" y="408.84"/><ellipse cx="564.29" cy="429.1505" fill="#ADD1B2" rx="11" ry="11" style="stroke:#181818;stroke-width:1;"/><path d="M566.7631,435.2936 Q566.1821,435.5924 565.5429,435.7419 Q564.9038,435.8913 564.1982,435.8913 Q561.6914,435.8913 560.3715,434.2394 Q559.0517,432.5876 559.0517,429.4665 Q559.0517,426.3371 560.3715,424.6852 Q561.6914,423.0334 564.1982,423.0334 Q564.9038,423.0334 565.5512,423.1828 Q566.1987,423.3322 566.7631,423.631 L566.7631,426.3537 Q566.1323,425.7726 565.5388,425.5028 Q564.9453,425.2331 564.3144,425.2331 Q562.9697,425.2331 562.2849,426.2997 Q561.6001,427.3664 561.6001,429.4665 Q561.6001,431.5583 562.2849,432.6249 Q562.9697,433.6916 564.3144,433.6916 Q564.9453,433.6916 565.5388,433.4218 Q566.1323,433.152 566.7631,432.571 Z " fill="#000000"/><text fill="#000000" font-family="sans-serif" font-size="12" font-style="italic" lengthAdjust="spacing" textLength="109.1602" x="576.29" y="425.4416">&#171;ConcreteProduct&#187;</text><text fill="#444444" font-family="sans-serif" font-size="14" lengthAdjust="spacing" textLength="71.4629" x="595.1386" y="441.508">MacButton</text><line style="stroke:#2E2E2E;stroke-width:0.5;" x1="550.29" x2="685.4502" y1="449.4611" y2="449.4611"/><line style="stroke:#2E2E2E;stroke-width:0.5;" x1="550.29" x2="685.4502" y1="457.4611" y2="457.4611"/></g><!--class MacCheckbox--><g class="entity" data-qualified-name="MacCheckbox" data-source-line="15" id="ent0007"><rect fill="#FBFBFB" height="56.6211" rx="2.5" ry="2.5" style="stroke:#2E2E2E;stroke-width:0.5;" width="137.1602" x="200.29" y="408.84"/><ellipse cx="215.29" cy="429.1505" fill="#ADD1B2" rx="11" ry="11" style="stroke:#181818;stroke-width:1;"/><path d="M217.7631,435.2936 Q217.1821,435.5924 216.5429,435.7419 Q215.9038,435.8913 215.1982,435.8913 Q212.6914,435.8913 211.3715,434.2394 Q210.0517,432.5876 210.0517,429.4665 Q210.0517,426.3371 211.3715,424.6852 Q212.6914,423.0334 215.1982,423.0334 Q215.9038,423.0334 216.5512,423.1828 Q217.1987,423.3322 217.7631,423.631 L217.7631,426.3537 Q217.1323,425.7726 216.5388,425.5028 Q215.9453,425.2331 215.3144,425.2331 Q213.9697,425.2331 213.2849,426.2997 Q212.6001,427.3664 212.6001,429.4665 Q212.6001,431.5583 213.2849,432.6249 Q213.9697,433.6916 215.3144,433.6916 Q215.9453,433.6916 216.5388,433.4218 Q217.1323,433.152 217.7631,432.571 Z " fill="#000000"/><text fill="#000000" font-family="sans-serif" font-size="12" font-style="italic" lengthAdjust="spacing" textLength="109.1602" x="227.29" y="425.4416">&#171;ConcreteProduct&#187;</text><text fill="#444444" font-family="sans-serif" font-size="14" lengthAdjust="spacing" textLength="94.4863" x="234.6269" y="441.508">MacCheckbox</text><line style="stroke:#2E2E2E;stroke-width:0.5;" x1="201.29" x2="336.4502" y1="449.4611" y2="449.4611"/><line style="stroke:#2E2E2E;stroke-width:0.5;" x1="201.29" x2="336.4502" y1="457.4611" y2="457.4611"/></g><!--class WinButton--><g class="entity" data-qualified-name="WinButton" data-source-line="16" id="ent0008"><rect fill="#FBFBFB" height="56.6211" rx="2.5" ry="2.5" style="stroke:#2E2E2E;stroke-width:0.5;" width="137.1602" x="375.29" y="408.84"/><ellipse cx="390.29" cy="429.1505" fill="#ADD1B2" rx="11" ry="11" style="stroke:#181818;stroke-width:1;"/><path d="M392.7631,435.2936 Q392.1821,435.5924 391.5429,435.7419 Q390.9038,435.8913 390.1982,435.8913 Q387.6914,435.8913 386.3715,434.2394 Q385.0517,432.5876 385.0517,429.4665 Q385.0517,426.3371 386.3715,424.6852 Q387.6914,423.0334 390.1982,423.0334 Q390.9038,423.0334 391.5512,423.1828 Q392.1987,423.3322 392.7631,423.631 L392.7631,426.3537 Q392.1323,425.7726 391.5388,425.5028 Q390.9453,425.2331 390.3144,425.2331 Q388.9697,425.2331 388.2849,426.2997 Q387.6001,427.3664 387.6001,429.4665 Q387.6001,431.5583 388.2849,432.6249 Q388.9697,433.6916 390.3144,433.6916 Q390.9453,433.6916 391.5388,433.4218 Q392.1323,433.152 392.7631,432.571 Z " fill="#000000"/><text fill="#000000" font-family="sans-serif" font-size="12" font-style="italic" lengthAdjust="spacing" textLength="109.1602" x="402.29" y="425.4416">&#171;ConcreteProduct&#187;</text><text fill="#444444" font-family="sans-serif" font-size="14" lengthAdjust="spacing" textLength="69.2139" x="422.2631" y="441.508">WinButton</text><line style="stroke:#2E2E2E;stroke-width:0.5;" x1="376.29" x2="511.4502" y1="449.4611" y2="449.4611"/><line style="stroke:#2E2E2E;stroke-width:0.5;" x1="376.29" x2="511.4502" y1="457.4611" y2="457.4611"/></g><!--class WinCheckbox--><g class="entity" data-qualified-name="WinCheckbox" data-source-line="17" id="ent0009"><rect fill="#FBFBFB" height="56.6211" rx="2.5" ry="2.5" style="stroke:#2E2E2E;stroke-width:0.5;" width="137.1602" x="21.29" y="408.84"/><ellipse cx="36.29" cy="429.1505" fill="#ADD1B2" rx="11" ry="11" style="stroke:#181818;stroke-width:1;"/><path d="M38.7631,435.2936 Q38.1821,435.5924 37.5429,435.7419 Q36.9038,435.8913 36.1982,435.8913 Q33.6914,435.8913 32.3715,434.2394 Q31.0517,432.5876 31.0517,429.4665 Q31.0517,426.3371 32.3715,424.6852 Q33.6914,423.0334 36.1982,423.0334 Q36.9038,423.0334 37.5512,423.1828 Q38.1987,423.3322 38.7631,423.631 L38.7631,426.3537 Q38.1323,425.7726 37.5388,425.5028 Q36.9453,425.2331 36.3144,425.2331 Q34.9697,425.2331 34.2849,426.2997 Q33.6001,427.3664 33.6001,429.4665 Q33.6001,431.5583 34.2849,432.6249 Q34.9697,433.6916 36.3144,433.6916 Q36.9453,433.6916 37.5388,433.4218 Q38.1323,433.152 38.7631,432.571 Z " fill="#000000"/><text fill="#000000" font-family="sans-serif" font-size="12" font-style="italic" lengthAdjust="spacing" textLength="109.1602" x="48.29" y="425.4416">&#171;ConcreteProduct&#187;</text><text fill="#444444" font-family="sans-serif" font-size="14" lengthAdjust="spacing" textLength="92.2373" x="56.7514" y="441.508">WinCheckbox</text><line style="stroke:#2E2E2E;stroke-width:0.5;" x1="22.29" x2="157.4502" y1="449.4611" y2="449.4611"/><line style="stroke:#2E2E2E;stroke-width:0.5;" x1="22.29" x2="157.4502" y1="457.4611" y2="457.4611"/></g><!--class AppShell--><g class="entity" data-qualified-name="AppShell" data-source-line="18" id="ent0010"><rect fill="#FBFBFB" height="56.6211" rx="2.5" ry="2.5" style="stroke:#2E2E2E;stroke-width:0.5;" width="91.4043" x="245.16" y="7"/><ellipse cx="260.16" cy="27.3105" fill="#ADD1B2" rx="11" ry="11" style="stroke:#181818;stroke-width:1;"/><path d="M262.6331,33.4536 Q262.0521,33.7524 261.4129,33.9019 Q260.7738,34.0513 260.0682,34.0513 Q257.5614,34.0513 256.2415,32.3994 Q254.9217,30.7476 254.9217,27.6265 Q254.9217,24.4971 256.2415,22.8452 Q257.5614,21.1934 260.0682,21.1934 Q260.7738,21.1934 261.4212,21.3428 Q262.0687,21.4922 262.6331,21.791 L262.6331,24.5137 Q262.0023,23.9326 261.4088,23.6628 Q260.8153,23.3931 260.1844,23.3931 Q258.8397,23.3931 258.1549,24.4597 Q257.4701,25.5264 257.4701,27.6265 Q257.4701,29.7183 258.1549,30.7849 Q258.8397,31.8516 260.1844,31.8516 Q260.8153,31.8516 261.4088,31.5818 Q262.0023,31.312 262.6331,30.731 Z " fill="#000000"/><text fill="#000000" font-family="sans-serif" font-size="12" font-style="italic" lengthAdjust="spacing" textLength="46.4355" x="280.6444" y="23.6016">&#171;Client&#187;</text><text fill="#444444" font-family="sans-serif" font-size="14" lengthAdjust="spacing" textLength="59.4043" x="274.16" y="39.668">AppShell</text><line style="stroke:#2E2E2E;stroke-width:0.5;" x1="246.16" x2="335.5643" y1="47.6211" y2="47.6211"/><line style="stroke:#2E2E2E;stroke-width:0.5;" x1="246.16" x2="335.5643" y1="55.6211" y2="55.6211"/></g><g class="entity" data-qualified-name="N" data-source-line="35" id="ent0024"><path d="M371.62,15 L371.62,55.6211 L1066.1127,55.6211 L1066.1127,25 L1056.1127,15 L371.62,15" fill="#FFF8E1" style="stroke:#C9A227;stroke-width:0.5;"/><path d="M1056.1127,15 L1056.1127,25 L1066.1127,25 L1056.1127,15" fill="#FFF8E1" style="stroke:#C9A227;stroke-width:1;"/><text fill="#000000" font-family="sans-serif" font-size="13" lengthAdjust="spacing" textLength="571.1494" x="377.62" y="32.5684">Intent: render a platform-consistent widget family without the shell knowing the platform.</text><text fill="#000000" font-family="sans-serif" font-size="13" lengthAdjust="spacing" textLength="673.4927" x="377.62" y="47.8789">Consequence: a new platform is one factory and one product set; a new widget type touches every factory.</text></g><!--reverse link WidgetFactory to MacWidgetFactory--><g class="link" data-entity-1="ent0001" data-entity-2="ent0002" data-link-type="extension" data-source-line="20" id="lnk11"><path codeLine="20" d="M354.3168,226.3082 C376.9868,246.2782 389.6,257.38 409.47,274.88" fill="none" id="WidgetFactory-backto-MacWidgetFactory" style="stroke:#181818;stroke-width:1;stroke-dasharray:7,7;"/><polygon fill="none" points="340.81,214.41,350.3508,230.8104,358.2829,221.8059,340.81,214.41" style="stroke:#181818;stroke-width:1;stroke-linejoin:miter;stroke-miterlimit:10;"/></g><!--reverse link WidgetFactory to WinWidgetFactory--><g class="link" data-entity-1="ent0001" data-entity-2="ent0003" data-link-type="extension" data-source-line="21" id="lnk12"><path codeLine="21" d="M272.7879,231.6747 C266.8979,251.6447 265.19,257.38 260.03,274.88" fill="none" id="WidgetFactory-backto-WinWidgetFactory" style="stroke:#181818;stroke-width:1;stroke-dasharray:7,7;"/><polygon fill="none" points="277.88,214.41,267.033,229.9774,278.5428,233.3721,277.88,214.41" style="stroke:#181818;stroke-width:1;stroke-linejoin:miter;stroke-miterlimit:10;"/></g><!--reverse link Button to MacButton--><g class="link" data-entity-1="ent0004" data-entity-2="ent0006" data-link-type="extension" data-source-line="22" id="lnk13"><path codeLine="22" d="M619.1775,350.1179 C618.8375,372.5779 618.63,386.14 618.28,408.59" fill="none" id="Button-backto-MacButton" style="stroke:#181818;stroke-width:1;stroke-dasharray:7,7;"/><polygon fill="none" points="619.45,332.12,613.1782,350.0271,625.1769,350.2088,619.45,332.12" style="stroke:#181818;stroke-width:1;stroke-linejoin:miter;stroke-miterlimit:10;"/></g><!--reverse link Button to WinButton--><g class="link" data-entity-1="ent0004" data-entity-2="ent0008" data-link-type="extension" data-source-line="23" id="lnk14"><path codeLine="23" d="M568.555,342.9 C538.615,365.29 511.02,385.93 481.02,408.37" fill="none" id="Button-backto-WinButton" style="stroke:#181818;stroke-width:1;stroke-dasharray:7,7;"/><polygon fill="none" points="582.97,332.12,564.9617,338.095,572.1483,347.705,582.97,332.12" style="stroke:#181818;stroke-width:1;stroke-linejoin:miter;stroke-miterlimit:10;"/></g><!--reverse link Checkbox to MacCheckbox--><g class="link" data-entity-1="ent0005" data-entity-2="ent0007" data-link-type="extension" data-source-line="24" id="lnk15"><path codeLine="24" d="M114.159,344.7014 C129.669,359.5814 136.93,365.16 156.87,378.84 C172.62,389.66 190.69,399.77 207.65,408.41" fill="none" id="Checkbox-backto-MacCheckbox" style="stroke:#181818;stroke-width:1;stroke-dasharray:7,7;"/><polygon fill="none" points="101.17,332.24,110.0052,349.0311,118.3128,340.3717,101.17,332.24" style="stroke:#181818;stroke-width:1;stroke-linejoin:miter;stroke-miterlimit:10;"/></g><!--reverse link Checkbox to WinCheckbox--><g class="link" data-entity-1="ent0005" data-entity-2="ent0009" data-link-type="extension" data-source-line="25" id="lnk16"><path codeLine="25" d="M79.3919,349.9885 C82.1219,372.4485 83.79,386.14 86.52,408.59" fill="none" id="Checkbox-backto-WinCheckbox" style="stroke:#181818;stroke-width:1;stroke-dasharray:7,7;"/><polygon fill="none" points="77.22,332.12,73.4357,350.7125,85.3481,349.2645,77.22,332.12" style="stroke:#181818;stroke-width:1;stroke-linejoin:miter;stroke-miterlimit:10;"/></g><!--link MacWidgetFactory to MacButton--><g class="link" data-entity-1="ent0002" data-entity-2="ent0006" data-link-type="dependency" data-source-line="26" id="lnk17"><path codeLine="26" d="M477.97,332.12 C508.08,354.51 546.3176,382.9466 576.4976,405.3866" fill="none" id="MacWidgetFactory-to-MacButton" style="stroke:#181818;stroke-width:1;stroke-dasharray:7,7;"/><polygon fill="#181818" points="580.51,408.37,575.6744,399.79,576.4976,405.3866,570.901,406.2098,580.51,408.37" style="stroke:#181818;stroke-width:1;stroke-linejoin:miter;stroke-miterlimit:10;"/><text fill="#000000" font-family="sans-serif" font-size="13" lengthAdjust="spacing" textLength="45.1318" x="540.96" y="375.4084">creates</text></g><!--link MacWidgetFactory to MacCheckbox--><g class="link" data-entity-1="ent0002" data-entity-2="ent0007" data-link-type="dependency" data-source-line="27" id="lnk18"><path codeLine="27" d="M404.81,332.12 C375.55,354.51 338.4606,382.8911 309.1406,405.3311" fill="none" id="MacWidgetFactory-to-MacCheckbox" style="stroke:#181818;stroke-width:1;stroke-dasharray:7,7;"/><polygon fill="#181818" points="305.17,408.37,314.7481,406.0765,309.1406,405.3311,309.8859,399.7236,305.17,408.37" style="stroke:#181818;stroke-width:1;stroke-linejoin:miter;stroke-miterlimit:10;"/><text fill="#000000" font-family="sans-serif" font-size="13" lengthAdjust="spacing" textLength="45.1318" x="366.16" y="375.4084">creates</text></g><!--link WinWidgetFactory to WinButton--><g class="link" data-entity-1="ent0003" data-entity-2="ent0008" data-link-type="dependency" data-source-line="28" id="lnk19"><path codeLine="28" d="M260.33,332.07 C266.36,347.64 275.9,366.41 289.87,378.84 C296.87,385.07 332.5962,398.381 370.2662,411.451" fill="none" id="WinWidgetFactory-to-WinButton" style="stroke:#181818;stroke-width:1;stroke-dasharray:7,7;"/><polygon fill="#181818" points="374.99,413.09,367.7984,406.3609,370.2662,411.451,365.1761,413.9189,374.99,413.09" style="stroke:#181818;stroke-width:1;stroke-linejoin:miter;stroke-miterlimit:10;"/><text fill="#000000" font-family="sans-serif" font-size="13" lengthAdjust="spacing" textLength="45.1318" x="290.87" y="375.4084">creates</text></g><!--link WinWidgetFactory to WinCheckbox--><g class="link" data-entity-1="ent0003" data-entity-2="ent0009" data-link-type="dependency" data-source-line="29" id="lnk20"><path codeLine="29" d="M217.91,332.12 C190.35,354.51 155.5607,382.7771 127.9407,405.2171" fill="none" id="WinWidgetFactory-to-WinCheckbox" style="stroke:#181818;stroke-width:1;stroke-dasharray:7,7;"/><polygon fill="#181818" points="124.06,408.37,133.5675,405.7994,127.9407,405.2171,128.5229,399.5903,124.06,408.37" style="stroke:#181818;stroke-width:1;stroke-linejoin:miter;stroke-miterlimit:10;"/><text fill="#000000" font-family="sans-serif" font-size="13" lengthAdjust="spacing" textLength="45.1318" x="181.57" y="375.4084">creates</text></g><!--link AppShell to WidgetFactory--><g class="link" data-entity-1="ent0010" data-entity-2="ent0001" data-link-type="dependency" data-source-line="30" id="lnk21"><path codeLine="30" d="M290.87,64 C290.87,81.41 290.87,99.24 290.87,119.12" fill="none" id="AppShell-to-WidgetFactory" style="stroke:#181818;stroke-width:1;"/><polygon fill="#181818" points="290.87,124.12,294.87,115.12,290.87,119.12,286.87,115.12,290.87,124.12" style="stroke:#181818;stroke-width:1;stroke-linejoin:miter;stroke-miterlimit:10;"/></g><!--link AppShell to Button--><g class="link" data-entity-1="ent0010" data-entity-2="ent0004" data-link-type="dependency" data-source-line="31" id="lnk22"><path codeLine="31" d="M334.62,63.95 C360.33,80.7 393.13,102.95 420.87,124.62 C484.41,174.26 549.8983,235.1523 587.6383,271.2823" fill="none" id="AppShell-to-Button" style="stroke:#181818;stroke-width:1;"/><polygon fill="#181818" points="591.25,274.74,587.515,265.6268,587.6383,271.2823,581.9828,271.4056,591.25,274.74" style="stroke:#181818;stroke-width:1;stroke-linejoin:miter;stroke-miterlimit:10;"/></g><!--link AppShell to Checkbox--><g class="link" data-entity-1="ent0010" data-entity-2="ent0005" data-link-type="dependency" data-source-line="32" id="lnk23"><path codeLine="32" d="M244.9,59.6 C217.78,75.13 184.29,97.62 160.87,124.62 C121.11,170.46 96.408,232.9189 83.908,270.2389" fill="none" id="AppShell-to-Checkbox" style="stroke:#181818;stroke-width:1;"/><polygon fill="#181818" points="82.32,274.98,88.9713,267.7164,83.908,270.2389,81.3855,265.1756,82.32,274.98" style="stroke:#181818;stroke-width:1;stroke-linejoin:miter;stroke-miterlimit:10;"/></g><?plantuml-src ZLHDRzim3BthLt2djkkYtBiYG1TiG0yR1XH3puhCr49aoPEefS6s_pxAbkry5HbW63RvH3uzYUyA7bQHWj84N_Zbm-u3B0CgCjufAs7fdGv820nAcbB0E-2q1MrLZ1XXvPEhW3m4Rp5ASGMVNrNJMiOf-F786MytXg0DlahQk1SEDufqZHLiJVM216lL6Bk35WEqLj7QXoRNUV8fQ2uJWvudCr_tzERl9KMureOvKOqzcRNXth2jqS7E9r2LQecp9jv8ySuuRLE58EMSdrOHON2pbXSsAulIfCOAOHn7kGN2SqUgY07tzuC-9R9Om6y1SAkpIFWf4NbtVGDtq7zEgMMDUhFohrro-15_HISSV5NwkD4WzTYeG9-DkmoT-FSyzeX_xvId0z30voniP3YM6lgTmUnLUWl56xXOYJ7_KUcXRPzgj3P3h46NC-98d3zIdgXx3dCignWubWBbFFUZuqR4nBMWnmC-pEnjIvmSkPIBFPNleBytyKtWM7g2djoD39tqlWmyKtCKUJPR74x3OQf8SH0RDokSvm5L4RxnH3polNEKZSDLFEHg7FEPzYwQcBD7Ph0rLFj4tOZ7hlp6-MssZnoPR0AoGqNycT3fpd8SRiSqc0ZU8HJh0CLEbVzxBoA8I1_BajATTYtRYaziJn7m5_AYibWA9WzvL_y0?></g></svg>